grf
version=1
nRows=12
nColumns=37
inDegrees=no
endheader
time	ground_force_1_vx	ground_force_1_vy	ground_force_1_vz	ground_force_1_px	ground_force_1_py	ground_force_1_pz	ground_moment_1_mx	ground_moment_1_my	ground_moment_1_mz	ground_force_2_vx	ground_force_2_vy	ground_force_2_vz	ground_force_2_px	ground_force_2_py	ground_force_2_pz	ground_moment_2_mx	ground_moment_2_my	ground_moment_2_mz	ground_force_3_vx	ground_force_3_vy	ground_force_3_vz	ground_force_3_px	ground_force_3_py	ground_force_3_pz	ground_moment_3_mx	ground_moment_3_my	ground_moment_3_mz	ground_force_4_vx	ground_force_4_vy	ground_force_4_vz	ground_force_4_px	ground_force_4_py	ground_force_4_pz	ground_moment_4_mx	ground_moment_4_my	ground_moment_4_mz
      0.00000000	      0.00000000	     -0.00000000	      0.00000000	      0.00000000	      0.00000000	      0.00000000	      0.00000000	      0.00000000	      0.00000000	     -1.36246598	     91.53692627	   -502.92822266	   -348.18651705	  -1190.27449886	      0.00000000	      0.00000000	      0.00000000	   2403.11788019	     -0.20040023	    -96.46699522	   -489.14892578	   -353.11307883	   -595.80475630	      0.00000000	      0.00000000	     -0.00000000	  -2628.36583985	      0.00000000	     -0.00000000	      0.00000000	      0.00000000	      0.00000000	      0.00000000	      0.00000000	      0.00000000	      0.00000000
      0.01000000	      0.00000000	     -0.00000000	      0.00000000	      0.00000000	      0.00000000	      0.00000000	      0.00000000	      0.00000000	      0.00000000	     -1.51657867	     91.18040466	   -504.88766479	   -348.07827681	  -1190.69611704	      0.00000000	      0.00000000	      0.00000000	   2200.31292346	     -0.21994096	    -96.29364012	   -487.49206543	   -352.63397039	   -595.93144110	      0.00000000	      0.00000000	     -0.00000000	  -2658.04818254	      0.00000000	     -0.00000000	      0.00000000	      0.00000000	      0.00000000	      0.00000000	      0.00000000	      0.00000000	      0.00000000
      0.02000000	      0.00000000	     -0.00000000	      0.00000000	      0.00000000	      0.00000000	      0.00000000	      0.00000000	      0.00000000	      0.00000000	     -1.54114807	     91.54598999	   -504.40234375	   -348.18110465	  -1190.29294416	      0.00000000	      0.00000000	      0.00000000	   2270.67544517	     -0.44777064	    -95.91735836	   -486.21850586	   -352.68444608	   -595.15915627	      0.00000000	      0.00000000	     -0.00000000	  -2714.77676176	      0.00000000	     -0.00000000	      0.00000000	      0.00000000	      0.00000000	      0.00000000	      0.00000000	      0.00000000	      0.00000000
      0.03000000	      0.00000000	     -0.00000000	      0.00000000	      0.00000000	      0.00000000	      0.00000000	      0.00000000	      0.00000000	      0.00000000	     -1.54674220	     91.92357635	   -504.59631348	   -348.72668315	  -1190.23700611	      0.00000000	      0.00000000	      0.00000000	   2385.52431854	     -1.08314101	    -95.91735830	   -484.99035645	   -351.90697670	   -595.72587949	      0.00000000	      0.00000000	     -0.00000000	  -2510.42717585	      0.00000000	     -0.00000000	      0.00000000	      0.00000000	      0.00000000	      0.00000000	      0.00000000	      0.00000000	      0.00000000
      0.04000000	      0.00000000	     -0.00000000	      0.00000000	      0.00000000	      0.00000000	      0.00000000	      0.00000000	      0.00000000	      0.00000000	     -1.19928026	     91.52223206	   -507.22463989	   -348.60398477	  -1190.86406764	      0.00000000	      0.00000000	      0.00000000	   2107.12909707	     -1.06979638	    -96.08875265	   -484.43750000	   -351.80714648	   -595.53820022	      0.00000000	      0.00000000	     -0.00000000	  -2696.03310781	      0.00000000	     -0.00000000	      0.00000000	      0.00000000	      0.00000000	      0.00000000	      0.00000000	      0.00000000	      0.00000000
      0.05000000	      0.00000000	     -0.00000000	      0.00000000	      0.00000000	      0.00000000	      0.00000000	      0.00000000	      0.00000000	      0.00000000	     -1.07052612	     91.98257446	   -507.57626343	   -348.92059653	  -1190.39089934	      0.00000000	      0.00000000	      0.00000000	   2234.37248426	     -1.18264762	    -95.87032308	   -484.08737183	   -351.63405668	   -594.72732355	      0.00000000	      0.00000000	     -0.00000000	  -2571.50250536	      0.00000000	     -0.00000000	      0.00000000	      0.00000000	      0.00000000	      0.00000000	      0.00000000	      0.00000000	      0.00000000
      0.06000000	      0.00000000	     -0.00000000	      0.00000000	      0.00000000	      0.00000000	      0.00000000	      0.00000000	      0.00000000	      0.00000000	     -0.95346004	     92.18591309	   -507.87274170	   -349.10494008	  -1190.80598840	      0.00000000	      0.00000000	      0.00000000	   2342.91868466	     -1.75047247	    -96.00567612	   -483.34411621	   -351.55430301	   -595.17378800	      0.00000000	      0.00000000	     -0.00000000	  -2620.70355381	      0.00000000	     -0.00000000	      0.00000000	      0.00000000	      0.00000000	      0.00000000	      0.00000000	      0.00000000	      0.00000000
      0.07000000	      0.00000000	     -0.00000000	      0.00000000	      0.00000000	      0.00000000	      0.00000000	      0.00000000	      0.00000000	      0.00000000	     -0.81462193	     92.00778198	   -508.33288574	   -349.50679436	  -1190.61309648	      0.00000000	      0.00000000	      0.00000000	   2268.13299769	     -1.92775452	    -95.44181807	   -483.15878296	   -351.10413241	   -594.92842855	      0.00000000	      0.00000000	     -0.00000000	  -2450.23428864	      0.00000000	     -0.00000000	      0.00000000	      0.00000000	      0.00000000	      0.00000000	      0.00000000	      0.00000000	      0.00000000
      0.08000000	      0.00000000	     -0.00000000	      0.00000000	      0.00000000	      0.00000000	      0.00000000	      0.00000000	      0.00000000	      0.00000000	     -0.50898993	     92.50422668	   -509.59027100	   -349.62824401	  -1190.68232367	      0.00000000	      0.00000000	      0.00000000	   2174.11311983	     -1.28264239	    -95.70751942	   -481.76364136	   -351.48552048	   -595.37694409	      0.00000000	      0.00000000	     -0.00000000	  -2563.13779956	      0.00000000	     -0.00000000	      0.00000000	      0.00000000	      0.00000000	      0.00000000	      0.00000000	      0.00000000	      0.00000000
      0.09000000	      0.00000000	     -0.00000000	      0.00000000	      0.00000000	      0.00000000	      0.00000000	      0.00000000	      0.00000000	      0.00000000	     -0.61172819	     92.92481232	   -511.35412598	   -349.62996295	  -1190.79184405	      0.00000000	      0.00000000	      0.00000000	   2141.59846168	     -1.29024637	    -95.50760639	   -481.22595215	   -351.54438218	   -595.22946034	      0.00000000	      0.00000000	     -0.00000000	  -2514.28173939	      0.00000000	     -0.00000000	      0.00000000	      0.00000000	      0.00000000	      0.00000000	      0.00000000	      0.00000000	      0.00000000
      0.10000000	      0.00000000	     -0.00000000	      0.00000000	      0.00000000	      0.00000000	      0.00000000	      0.00000000	      0.00000000	      0.00000000	     -0.37010601	     92.87388611	   -510.14218140	   -349.75554133	  -1190.20939435	      0.00000000	      0.00000000	      0.00000000	   2293.39008866	     -1.04864606	    -95.04248038	   -481.82922363	   -351.92349663	   -595.15631072	      0.00000000	      0.00000000	     -0.00000000	  -2609.66538469	      0.00000000	     -0.00000000	      0.00000000	      0.00000000	      0.00000000	      0.00000000	      0.00000000	      0.00000000	      0.00000000
      0.11000000	      0.00000000	     -0.00000000	      0.00000000	      0.00000000	      0.00000000	      0.00000000	      0.00000000	      0.00000000	      0.00000000	     -0.20417944	     92.26378632	   -510.39971924	   -350.32150501	  -1190.62398114	      0.00000000	      0.00000000	      0.00000000	   2170.37663197	     -0.73410658	    -94.51309961	   -481.19183350	   -352.17659504	   -595.51225817	      0.00000000	      0.00000000	     -0.00000000	  -2459.62907585	      0.00000000	     -0.00000000	      0.00000000	      0.00000000	      0.00000000	      0.00000000	      0.00000000	      0.00000000	      0.00000000
